<?xml version="1.0" encoding="UTF-8"?>
<svg width="226px" height="26px" viewBox="0 0 226 26" version="1.1" xmlns="http://www.w3.org/2000/svg" xmlns:xlink="http://www.w3.org/1999/xlink">
    <!-- Generator: Sketch 41.2 (35397) - http://www.bohemiancoding.com/sketch -->
    <title>linkface</title>
    <desc>Created with Sketch.</desc>
    <defs></defs>
    <g id="Page-1" stroke="none" stroke-width="1" fill="none" fill-rule="evenodd">
        <g id="linkface" stroke-width="1.3" stroke="#FFFFFF" fill="#FFFFFF">
            <g id="图层_2">
                <g id="图层_1-2">
                    <path d="M33.6,23.84 C33.2402282,23.842665 32.8942759,23.7016107 32.6389348,23.4481472 C32.3835938,23.1946836 32.2399901,22.8497816 32.24,22.49 L32.24,3.43 C32.3004786,2.72665043 32.889055,2.1865118 33.595,2.1865118 C34.300945,2.1865118 34.8895214,2.72665043 34.95,3.43 L34.95,22.49 C34.95,23.2355844 34.3455844,23.84 33.6,23.84 Z" id="Shape"></path>
                    <path d="M166.82,22.19 C166.86129,22.3034688 166.891432,22.4206886 166.91,22.54 L166.91,22.7 C166.917681,22.7564064 166.917681,22.8135936 166.91,22.87 C166.888547,23.063659 166.81987,23.2490878 166.71,23.41 L166.62,23.54 C166.543755,23.6306002 166.456401,23.7112349 166.36,23.78 L166.17,23.9 C166.045223,23.9531498 165.914159,23.9901166 165.78,24.01 C165.716937,24.0182772 165.653063,24.0182772 165.59,24.01 L143,24.01 L142.91,24.01 C142.778589,23.9923358 142.650527,23.9552653 142.53,23.9 L142.53,23.9 L142.38,23.81 C142.275902,23.731876 142.181856,23.641189 142.1,23.54 L142.03,23.44 C141.962283,23.3411524 141.908448,23.2334819 141.87,23.12 C141.846359,23.0450172 141.829623,22.9680301 141.82,22.89 L141.82,22.68 L141.82,22.61 C141.82,22.49 141.82,22.41 141.89,22.32 L141.94,22.17 L141.94,22.09 L153.2,2.84 L153.37,2.67 L153.53,2.52 L153.65,2.43 C153.700598,2.40335173 153.754356,2.3831926 153.81,2.37 C153.890762,2.33588113 153.974434,2.30910628 154.06,2.29 L154.31,2.29 L154.57,2.29 C154.659123,2.30791026 154.746225,2.33471096 154.83,2.37 L154.88,2.37 L154.88,2.37 L154.95,2.37 L155.04,2.42 L155.21,2.58 C155.263863,2.6295761 155.313998,2.68305427 155.36,2.74 L155.43,2.81 L155.43,2.87 L166.71,22.01 L166.71,22.09 L166.82,22.19 Z M145.35,21.27 L163.11,21.27 L154.33,6.27 L145.35,21.27 Z" id="Shape"></path>
                    <path d="M67.48,23.74 L67.36,23.67 C67.2467844,23.6158301 67.1422977,23.5450487 67.05,23.46 L49.83,6.62 L49.83,22.49 C49.7695214,23.1933496 49.180945,23.7334882 48.475,23.7334882 C47.769055,23.7334882 47.1804786,23.1933496 47.12,22.49 L47.12,3.43 C47.1199901,3.07021837 47.2635938,2.72531639 47.5189348,2.47185284 C47.7742759,2.2183893 48.1202282,2.07733495 48.48,2.08 C48.77811,2.08203401 49.0668929,2.18416454 49.3,2.37 L49.39,2.42 L66.63,19.3 L66.63,3.43 C66.6904786,2.72665043 67.279055,2.1865118 67.985,2.1865118 C68.690945,2.1865118 69.2795214,2.72665043 69.34,3.43 L69.34,22.61 C69.3221491,22.71541 69.2953865,22.8191153 69.26,22.92 C69.2354738,22.9889972 69.2053746,23.0558846 69.17,23.12 L69.09,23.24 C69.04766,23.3177317 68.9937056,23.3885469 68.93,23.45 C68.8642411,23.5102936 68.7901486,23.5608113 68.71,23.6 L68.61,23.67 L68.47,23.74 C68.3136645,23.800139 68.1475024,23.8306586 67.98,23.83 C67.98,23.83 67.6451071,23.8070817 67.48,23.74 Z" id="Shape"></path>
                    <path d="M82.86,23.84 C82.7737026,23.8513147 82.6862974,23.8513147 82.6,23.84 L82.48,23.84 L82.35,23.84 C82.2340381,23.7895091 82.1261998,23.7221102 82.03,23.64 L81.86,23.48 C81.7777982,23.3746725 81.7073785,23.2606595 81.65,23.14 C81.5680587,22.9679935 81.5237398,22.7804905 81.52,22.59 L81.52,3.43 C81.5804786,2.72665043 82.169055,2.1865118 82.875,2.1865118 C83.580945,2.1865118 84.1695214,2.72665043 84.23,3.43 L84.23,19.31 L101.42,2.48 C101.951727,1.96304068 102.798273,1.96304068 103.33,2.48 C103.587876,2.72877164 103.733539,3.07168829 103.733539,3.43 C103.733539,3.78831171 103.587876,4.13122836 103.33,4.38 L94.55,13 L103.33,21.6 C103.584734,21.8484308 103.728385,22.1891806 103.728385,22.545 C103.728385,22.9008194 103.584734,23.2415692 103.33,23.49 C102.798273,24.0069593 101.951727,24.0069593 101.42,23.49 L92.62,14.88 L83.82,23.49 C83.5911952,23.7141936 83.289646,23.8490039 82.97,23.87 L82.86,23.84 Z" id="Shape"></path>
                    <path d="M2.11,23.86 L2.11,23.86 C1.73207959,23.8819512 1.36173516,23.7476901 1.08568142,23.4886534 C0.809627688,23.2296166 0.652106197,22.8685515 0.65,22.49 L0.65,3.43 C0.710478617,2.72665043 1.29905505,2.1865118 2.005,2.1865118 C2.71094495,2.1865118 3.29952138,2.72665043 3.36,3.43 L3.36,21.15 L18.54,21.15 C19.2433496,21.2104786 19.7834882,21.799055 19.7834882,22.505 C19.7834882,23.210945 19.2433496,23.7995214 18.54,23.86 L2.11,23.86 Z" id="Shape"></path>
                    <path d="M117.25,23.84 C116.890228,23.842665 116.544276,23.7016107 116.288935,23.4481472 C116.033594,23.1946836 115.88999,22.8497816 115.89,22.49 L115.89,3.43 C115.88999,3.07021837 116.033594,2.72531639 116.288935,2.47185284 C116.544276,2.2183893 116.890228,2.07733495 117.25,2.08 L117.47,2.08 L133.78,2.08 C134.48335,2.14047862 135.023488,2.72905505 135.023488,3.435 C135.023488,4.14094495 134.48335,4.72952138 133.78,4.79 L118.6,4.79 L118.6,11.54 L133.78,11.54 C134.48335,11.6004786 135.023488,12.189055 135.023488,12.895 C135.023488,13.600945 134.48335,14.1895214 133.78,14.25 L118.6,14.25 L118.6,22.52 C118.583688,23.2538429 117.984024,23.8401813 117.25,23.84 L117.25,23.84 Z" id="Shape"></path>
                    <path d="M206.75,23.86 L206.75,23.86 C206.382274,23.8680333 206.026557,23.7289357 205.761822,23.4735886 C205.497088,23.2182415 205.345243,22.867776 205.34,22.5 L205.34,3.43 C205.33999,3.07021837 205.483594,2.72531639 205.738935,2.47185284 C205.994276,2.2183893 206.340228,2.07733495 206.7,2.08 L206.92,2.08 L223.23,2.08 C223.93335,2.14047862 224.473488,2.72905505 224.473488,3.435 C224.473488,4.14094495 223.93335,4.72952138 223.23,4.79 L208,4.79 L208,11.54 L223.18,11.54 C223.88335,11.6004786 224.423488,12.189055 224.423488,12.895 C224.423488,13.600945 223.88335,14.1895214 223.18,14.25 L208,14.25 L208,21.18 L223.18,21.18 C223.88335,21.2404786 224.423488,21.829055 224.423488,22.535 C224.423488,23.240945 223.88335,23.8295214 223.18,23.89 L206.75,23.86 Z" id="Shape"></path>
                    <path d="M186.12,25.24 C182.817818,25.2576672 179.643022,23.966895 177.29,21.65 C174.954362,19.3577167 173.638507,16.2225785 173.638507,12.95 C173.638507,9.67742155 174.954362,6.54228332 177.29,4.25 C182.197166,-0.542960714 190.032834,-0.542960714 194.94,4.25 C195.217908,4.52267692 195.374483,4.8956599 195.374483,5.285 C195.374483,5.6743401 195.217908,6.04732308 194.94,6.32 C194.361362,6.88399313 193.438638,6.88399313 192.86,6.32 C189.110112,2.65502158 183.119888,2.65502158 179.37,6.32 C177.587067,8.0672945 176.582375,10.4586249 176.582375,12.955 C176.582375,15.4513751 177.587067,17.8427055 179.37,19.59 C183.119888,23.2549784 189.110112,23.2549784 192.86,19.59 C193.438638,19.0260069 194.361362,19.0260069 194.94,19.59 C195.217908,19.8626769 195.374483,20.2356599 195.374483,20.625 C195.374483,21.0143401 195.217908,21.3873231 194.94,21.66 C192.587817,23.9707856 189.417299,25.257685 186.12,25.24 L186.12,25.24 Z" id="Shape"></path>
                </g>
            </g>
        </g>
    </g>
</svg>